<?xml version="1.0" encoding="UTF-8"?>
<svg viewBox="0 0 750 160" xmlns="http://www.w3.org/2000/svg">
	<defs>
		<linearGradient id="terminalGradient" x1="0%" y1="0%" x2="100%" y2="100%">
			<stop offset="0%" style="stop-color:#ff0055;stop-opacity:1" />
			<stop offset="100%" style="stop-color:#7000ff;stop-opacity:1" />
		</linearGradient>
	</defs>
	
	<!-- Background -->
	<rect width="750" height="160" fill="#0a0a0a"/>

	<g transform="translate(10, 10)">
		<path d="M 110 0 L 0 0 L 0 100 L 110 100 L 110 60" fill="none" stroke="url(#terminalGradient)"
			stroke-width="14" stroke-linecap="square" />
		<polyline points="30,40 50,60 30,80" fill="none" stroke="#ffffff" stroke-width="8"
			stroke-linecap="square" />
		<rect x="60" y="70" width="16" height="8" fill="#ff0055" />
	</g>

	<g transform="translate(160, 10)">
		<line x1="55" y1="0" x2="0" y2="100" stroke="#ffffff" stroke-width="10" stroke-linecap="round" />
		<line x1="55" y1="0" x2="110" y2="100" stroke="#ffffff" stroke-width="10" stroke-linecap="round" />
		<path d="M 25 70 Q 55 70 55 55 Q 55 70 85 70" fill="none" stroke="#ffffff" stroke-width="6"
			stroke-linecap="round" />
	</g>

	<g transform="translate(300, 10)">
		<line x1="10" y1="0" x2="10" y2="100" stroke="#ffffff" stroke-width="10" stroke-linecap="round" />
		<path d="M 10 0 L 60 0 Q 100 0 100 35 Q 100 65 60 65 L 10 65" fill="none" stroke="#ffffff"
			stroke-width="10" stroke-linecap="round" />
		<line x1="60" y1="65" x2="100" y2="100" stroke="#ffffff" stroke-width="10" stroke-linecap="round" />
	</g>

	<g transform="translate(440, 10)">
		<line x1="10" y1="0" x2="10" y2="100" stroke="#ffffff" stroke-width="10" stroke-linecap="round" />
		<line x1="110" y1="0" x2="110" y2="100" stroke="#ffffff" stroke-width="10" stroke-linecap="round" />
		<polyline points="10,20 60,80 110,20" fill="none" stroke="#ffffff" stroke-width="10"
			stroke-linecap="round" stroke-linejoin="round" />
	</g>

	<g transform="translate(590, 10)">
		<line x1="55" y1="0" x2="0" y2="100" stroke="#ffffff" stroke-width="10" stroke-linecap="round" />
		<line x1="55" y1="0" x2="110" y2="100" stroke="#ffffff" stroke-width="10" stroke-linecap="round" />
		<path d="M 25 70 Q 55 70 55 55 Q 55 70 85 70" fill="none" stroke="#ffffff" stroke-width="6"
			stroke-linecap="round" />
	</g>

</svg>
